<svg width="29" height="32" viewBox="0 0 29 32" fill="none" xmlns="http://www.w3.org/2000/svg">
<path d="M21.605 14.435C21.605 13.9655 21.75 13.496 21.75 12.87C21.75 9.42698 19.14 6.60999 15.95 6.60999C13.63 6.60999 11.745 8.01848 10.73 10.053C10.44 9.89648 9.86001 9.73998 9.42501 9.73998C7.39501 9.73998 5.80001 11.4615 5.80001 13.6525C5.80001 13.9655 5.80001 14.2785 5.94501 14.435C3.33501 14.9045 1.45001 17.0955 1.45001 19.9125C1.45001 22.886 3.77001 25.39 6.52501 25.39H21.025C23.78 25.39 26.1 22.886 26.1 19.9125C26.1 17.0955 24.215 14.748 21.605 14.435Z" fill="white"/>
</svg>
