<svg width="100" height="100" viewBox="0 0 100 100" fill="none" xmlns="http://www.w3.org/2000/svg">
<path d="M12.1323 30.3218H87.1323C90.5823 30.3218 93.3823 27.5218 93.3823 24.0718C93.3823 20.6218 90.5823 17.8218 87.1323 17.8218H12.1323C8.68232 17.8218 5.88232 20.6218 5.88232 24.0718C5.88232 27.5218 8.68232 30.3218 12.1323 30.3218ZM87.1323 42.8218H12.1323C8.68232 42.8218 5.88232 45.6218 5.88232 49.0718C5.88232 52.5218 8.68232 55.3218 12.1323 55.3218H87.1323C90.5823 55.3218 93.3823 52.5218 93.3823 49.0718C93.3823 45.6218 90.5823 42.8218 87.1323 42.8218ZM87.1323 67.8218H12.1323C8.68232 67.8218 5.88232 70.6218 5.88232 74.0718C5.88232 77.5218 8.68232 80.3218 12.1323 80.3218H87.1323C90.5823 80.3218 93.3823 77.5218 93.3823 74.0718C93.3823 70.6218 90.5823 67.8218 87.1323 67.8218Z" fill="white"/>
</svg>
